# xmcd CD database file
#
# Track frame offsets:
#	150
#	36570
#	61410
#	94675
#	123887
#	152682
#	209667
#	240205
#
# Disc length: 3588 seconds
#
# Revision: 0
# Processed by: cddbd v1.5.1PL2 Copyright (c) Steve Scherf et al.
# Submitted via: CDex 1.51
#
DISCID=660e0208
DTITLE=Various Artist - A Tribute to Nicolette Larson - Condolences To Urban Cowgirl Pt.1 [DISK 1]
DYEAR=1998
DGENRE=Rock
TTITLE0=Graham Nash and Russ Kunkle - Introduction
TTITLE1=Carole King, Bonnie Raitt and Rosemary Butler - Lotta Love
TTITLE2=Little Feat - All That You Dream
TTITLE3=Little Feat - Down On The Farm
TTITLE4=Little Feat, Bonnie Raitt - Cold Cold Cold
TTITLE5=Little Feat, Bonnie Raitt and Jimmy Buffett - Dixie Chicken
TTITLE6=Bonnie Raitt, David Crosby and Graham Nash - Love Has No Pride
TTITLE7=The Section - Street Pizza
EXTD=YEAR: 1998
EXTT0=
EXTT1=
EXTT2=
EXTT3=
EXTT4=
EXTT5=
EXTT6=
EXTT7=
PLAYORDER=
